<?xml version="1.0" encoding="utf-8"?>
<!-- Generator: Adobe Illustrator 21.0.0, SVG Export Plug-In . SVG Version: 6.00 Build 0)  -->
<svg version="1.2" baseProfile="tiny" id="Camada_1"
	 xmlns="http://www.w3.org/2000/svg" xmlns:xlink="http://www.w3.org/1999/xlink" x="0px" y="0px" viewBox="0 0 1000 1000"
	 overflow="scroll" xml:space="preserve">
<circle fill="none" stroke="#000000" stroke-width="20" stroke-miterlimit="10" cx="506.6" cy="549.3" r="150.4"/>
<g>
	<path d="M415.7,491.7c20.2,0,40.4-0.1,60.7,0.1c7.8,0.1,15.1,2.3,21,7.7c7.6,7,9.6,16,8.6,25.9c-0.6,5.8-2.9,10.8-7.8,14.1
		c-2.3,1.6-5.1,2.5-7.4,3.7c3.1,0.3,6.4,1,9.3,3c4,2.6,6.5,6.4,7.9,10.8c2.8,8.6,3.1,17.3,0.4,26c-3.1,10-10.3,15.8-19.8,19.1
		c-4.6,1.6-9.3,2.3-14.1,2.3c-19.1,0-38.2,0-57.3,0c-0.5,0-0.9-0.1-1.4-0.1C415.7,566.7,415.7,529.2,415.7,491.7z M441.6,584.3
		c11,0,21.9,0.2,32.8-0.1c5.1-0.1,9-2.7,10.8-7.8c1.3-3.6,1.3-7.3,0.6-11c-1.3-7.4-5.8-11.2-13.4-11.2c-9.6,0-19.3,0-28.9,0
		c-0.6,0-1.2,0-1.9,0C441.6,564.4,441.6,574.2,441.6,584.3z M441.7,511.7c0,8.5,0,16.8,0,25.1c10.9,0,21.7,0.1,32.6-0.1
		c3.3,0,5.7-1.9,6.8-5.1c1.4-4.1,1.7-8.3,0.8-12.6c-1.1-5.1-4.1-7.4-9.3-7.4c-9.6,0-19.2,0-28.7,0
		C443.1,511.7,442.5,511.7,441.7,511.7z"/>
	<path d="M596.9,569.3c-19.3,0-38.7,0-57.9,0c-0.7,7.8,3.3,16.4,13.1,18.8c5.5,1.3,10.9,1.1,16.2-0.8c4.5-1.6,7.5-4.6,8.2-9.5
		c0.1-0.4,0.7-0.9,1.1-0.9c6.1-0.1,12.3,0,18.6,0c0.2,3.8-0.4,7.5-1.7,11c-2.9,7.8-8.7,12.8-16.3,15.5c-13.9,5.1-28,5-41.7-0.6
		c-10.1-4.1-16.4-12.1-19.6-22.3c-4.6-14.6-2.8-28.6,5-41.8c4.8-8.2,12.1-13.6,21.2-16.1c9.2-2.6,18.4-2.7,27.7-0.4
		c10.1,2.6,17.4,8.8,21.8,18.2c4,8.7,5.1,18,4.5,27.5C597.2,568.2,597.1,568.7,596.9,569.3z M538.6,554.1c12.3,0,24.5,0,37,0
		c-0.3-1.8-0.5-3.4-0.9-5c-1.4-5-4.1-9.1-9.2-10.9C554.9,534.3,541.6,538.6,538.6,554.1z"/>
	<path d="M533.7,512.1c0-4.6,0-9,0-13.6c15.4,0,30.8,0,46.2,0c0,4.5,0,9,0,13.6C564.6,512.1,549.3,512.1,533.7,512.1z"/>
</g>
</svg>
