<?xml version="1.0" encoding="utf-8"?>
<!-- Generator: Adobe Illustrator 21.0.0, SVG Export Plug-In . SVG Version: 6.00 Build 0)  -->
<svg version="1.2" baseProfile="tiny" id="Camada_1"
	 xmlns="http://www.w3.org/2000/svg" xmlns:xlink="http://www.w3.org/1999/xlink" x="0px" y="0px" viewBox="0 0 1000 1000"
	 overflow="scroll" xml:space="preserve">
<g>
	<path d="M500.3,693.5c-78.4-71.6-146-146.4-178.8-246c-30.9-93.7-3.1-181,71-231.1c68.7-46.4,163.1-42.3,228.8,10
		c63.4,50.6,85.5,135.3,56.1,222.4C644.3,546.9,577.2,620.8,500.3,693.5z M562.7,374.5c-0.4-33.4-31.2-63.1-64.5-62.1
		c-32.1,1-60.5,29.4-61.3,61.3c-0.8,32.8,29.6,64.1,62.5,64.3C532.4,438.4,563.1,407.5,562.7,374.5z"/>
	<path d="M206,815.7c14.2-58,27.8-115.3,42.7-172.3c1.5-5.8,10.4-13.8,15.8-13.8c44.1,0.4,94-15.8,121.4,38.4
		c3.3,6.6,9.7,11.6,18.9,22.3c-36.2,0-67,0-100.2,0c-5.2,22.5-9.8,42.1-14.9,63.8c140.8,0,277.7,0,419.4,0
		c-4.4-21-8.5-40.4-13.2-62.4c-32.9,0-64,0-96.9,0c40.2-65.8,61.3-75.9,132.8-62.2c7.8,1.5,15.2,11.2,20.2,18.7
		c4.1,6.2,4.4,15,6.3,22.6C770,718,781.6,765.2,794,815.7C597.3,815.7,403.2,815.7,206,815.7z"/>
</g>
</svg>
