<?xml version="1.0" encoding="utf-8"?>
<!-- Generator: Adobe Illustrator 21.0.0, SVG Export Plug-In . SVG Version: 6.00 Build 0)  -->
<svg version="1.2" baseProfile="tiny" id="Camada_1"
	 xmlns="http://www.w3.org/2000/svg" xmlns:xlink="http://www.w3.org/1999/xlink" x="0px" y="0px" viewBox="0 0 1000 1000"
	 overflow="scroll" xml:space="preserve">
<circle fill="none" stroke="#000000" stroke-width="20" stroke-miterlimit="10" cx="503.7" cy="558.6" r="150.4"/>
<g>
	<path d="M551.9,463.8c2.4,1,3.2,2.7,3.1,5.3c-0.1,8.8,0,17.5,0,26.3c0,3.9-1.2,5.1-5.2,5.2c-6.2,0.1-12.5,0-18.7,0.3
		c-3.4,0.1-6.7,1.1-8.4,4.5c-0.8,1.6-1.4,3.5-1.4,5.3c-0.2,7-0.1,14.1-0.1,21.4c0.7,0,1.3,0,2,0c8.5,0,17,0,25.6,0
		c3.8,0,5.1,1.3,5.1,5.1c0,9.6,0,19.3,0,28.9c0,3.6-1.3,4.9-4.9,4.9c-8.5,0-17,0-25.6,0c-0.7,0-1.3,0-2.2,0c0,0.9,0,1.6,0,2.3
		c0,24.9,0,49.8,0,74.7c0,4.4-1.2,5.6-5.6,5.6c-9.8,0-19.5,0-29.3,0c-3.9,0-5.1-1.3-5.1-5.1c0-25,0-50,0-75c0-0.7,0-1.5,0-2.5
		c-0.8,0-1.4,0-2.1,0c-7.2,0-14.5,0-21.7,0c-3.5,0-4.8-1.3-4.8-4.8c0-9.8,0-19.5,0-29.3c0-3.4,1.4-4.8,4.9-4.8c7.2,0,14.3,0,21.5,0
		c0.7,0,1.3,0,2.3,0c0-0.8,0-1.5,0-2.1c0-7.7-0.2-15.3,0.1-23c0.5-10.8,3.7-20.7,11-29c6.8-7.6,15.4-11.7,25.3-13.4
		c1.5-0.2,2.9-0.5,4.4-0.7C531.9,463.8,541.9,463.8,551.9,463.8z"/>
</g>
</svg>
