<?xml version="1.0" encoding="utf-8"?>
<!-- Generator: Adobe Illustrator 21.0.0, SVG Export Plug-In . SVG Version: 6.00 Build 0)  -->
<svg version="1.2" baseProfile="tiny" id="Camada_1"
	 xmlns="http://www.w3.org/2000/svg" xmlns:xlink="http://www.w3.org/1999/xlink" x="0px" y="0px" viewBox="0 0 1000 1000"
	 overflow="scroll" xml:space="preserve">
<circle fill="none" stroke="#000000" stroke-width="20" stroke-miterlimit="10" cx="520.2" cy="543.3" r="185.5"/>
<g>
	<g>
		<path fill="#020203" d="M630,451.4c0,37.8,0,75.6,0,113.3c-71.9,0.2-143.8,0.4-215.7,0.5c-0.9,0-1.8-1.1-4-2.5
			c0-31.1-0.1-63,0-94.9c0.1-21.5,4.8-26.4,26-26.4c56-0.1,111.9-0.5,167.9,0.4C612.9,442,621.4,448.1,630,451.4z M444.4,514.7
			c16.9,0,31.7,0.6,46.4-0.4c3.9-0.3,10.5-5.4,10.7-8.7c1.1-15.7,0.5-31.5,0.5-48.3c-20.3,0-38.6,0-57.6,0
			C444.4,476.5,444.4,494.5,444.4,514.7z M517.8,461.7c0,1.2,0,2.5,0,3.7c19.9,0,39.8,0,59.7,0c0-1.2,0-2.5,0-3.7
			C557.6,461.7,537.7,461.7,517.8,461.7z M518.3,527.3c0,1.2,0.1,2.5,0.2,3.7c19.6,0,39.2,0,58.7,0c0-1.2,0-2.5-0.1-3.7
			C557.5,527.3,537.9,527.3,518.3,527.3z M522.2,553.5c-0.1-1.2-0.2-2.3-0.2-3.5c-19.6,0-39.3,0-59,0c0,1.2,0.1,2.3,0.1,3.5
			C482.9,553.5,502.5,553.5,522.2,553.5z M536.8,483.8c0,1.2,0.1,2.4,0.1,3.6c19.4,0,38.8,0,58.1,0c0-1.2,0-2.4,0-3.6
			C575.6,483.8,556.2,483.8,536.8,483.8z M537.1,549.6c-0.1,1.2-0.1,2.4-0.2,3.6c19.3,0,38.7,0,58,0c0-1.2,0-2.4,0.1-3.6
			C575.7,549.6,556.4,549.6,537.1,549.6z"/>
		<path fill="#020203" d="M630,592.2c-7.9,3.5-15.7,9.3-23.8,9.9c-20.3,1.4-40.7,0.5-61.1,0.5c-1.2,1.6-2.4,3.1-3.5,4.7
			c9,11.7,17.9,23.4,29.2,38.1c-35.2,0-66,0-101.2,0c11.3-14.7,20.2-26.4,29.2-38.1c-1.2-1.6-2.4-3.2-3.5-4.7
			c-19.8,0-39.6,0.1-59.4,0c-21.4-0.1-25.8-5-24.5-27.4c3-0.5,6.3-1.5,9.5-1.5c66.4-0.1,132.7-0.1,199.1,0c3.3,0,6.7,0.9,10.1,1.4
			C630,580.7,630,586.5,630,592.2z M500.9,623.2c13.2,0,25.9,0,38.6,0c-0.9-12.8-2.2-21.4-18.2-21.3
			C506.2,602.1,500.8,607.5,500.9,623.2z"/>
		<path fill="#020203" d="M493.6,506.5c-14.4,0-27.4,0-41.5,0c0-13.9,0-27.2,0-41.7c13.8,0,27.2,0,41.5,0
			C493.6,478.6,493.6,491.5,493.6,506.5z"/>
	</g>
</g>
</svg>
