<?xml version="1.0" encoding="utf-8"?>
<!-- Generator: Adobe Illustrator 21.0.0, SVG Export Plug-In . SVG Version: 6.00 Build 0)  -->
<svg version="1.2" baseProfile="tiny" id="Camada_1"
	 xmlns="http://www.w3.org/2000/svg" xmlns:xlink="http://www.w3.org/1999/xlink" x="0px" y="0px" viewBox="0 0 1000 1000"
	 overflow="scroll" xml:space="preserve">
<circle fill="none" stroke="#000000" stroke-width="20" stroke-miterlimit="10" cx="523.5" cy="547.5" r="185.5"/>
<g>
	<g>
		<path fill="#020203" d="M407.5,600.7c9.5,0,19,0,25.7,0c-2.2-9.7-5.8-18.8-6-28.1c-0.8-28.2-0.3-56.4-0.3-84.7
			c0-16.1,6.7-22.8,22.6-22.9c49.2-0.1,98.4-0.1,147.6,0c16.9,0,23.5,6.6,23.5,23.2c0.1,27.8,0.6,55.7-0.3,83.5
			c-0.3,9.6-3.8,19.1-6,29.1c6.3,0,15.4,0,24.4,0c3,21.4-3.4,28.9-24.4,28.9c-60.5,0-121-0.3-181.4,0.3
			c-11.3,0.1-19.5-3.1-25.5-12.3C407.5,612,407.5,606.3,407.5,600.7z M446.7,580.3c52.3,0,103.2,0,154,0c0-32.3,0-63.6,0-95.2
			c-51.6,0-102.6,0-154,0C446.7,517.2,446.7,548.5,446.7,580.3z"/>
		<path fill="#020203" d="M571.7,504.6c0,6.3,0,11.8,0,17.9c-32.1,0-63.7,0-95.8,0c0-6.1,0-11.6,0-17.9
			C507.5,504.6,539.1,504.6,571.7,504.6z"/>
		<path fill="#020203" d="M552.6,543.2c0,6.4,0,11.6,0,17.8c-25.3,0-50.4,0-76.4,0c0-5.5,0-11.3,0-17.8
			C501.3,543.2,526.4,543.2,552.6,543.2z"/>
	</g>
</g>
</svg>
