<?xml version="1.0" encoding="utf-8"?>
<!-- Generator: Adobe Illustrator 21.0.0, SVG Export Plug-In . SVG Version: 6.00 Build 0)  -->
<svg version="1.2" baseProfile="tiny" id="Camada_1"
	 xmlns="http://www.w3.org/2000/svg" xmlns:xlink="http://www.w3.org/1999/xlink" x="0px" y="0px" viewBox="0 0 1000 1000"
	 overflow="scroll" xml:space="preserve">
<g>
	<g>
		<path d="M405.7,663.7c8.1-32.3,15.6-62.6,23.4-92.8c0.8-3,3.7-5.5,6.1-7.9c42.5-42.4,85-84.8,127.5-127.2c1.3-1.3,2.9-2.3,5.6-4.5
			c5.1,5.3,10.1,10.4,16.2,16.8c-38.9,38.4-77.1,76.1-116.4,115c12.9,13.5,24.5,25.7,37.3,39.3c39.6-40.3,77.6-78.8,116.9-118.8
			c5.4,6.9,9.8,12.5,14.2,18.2c1.6,1,3.1,1.9,4.7,2.9c-5.9,4.1-12.5,7.5-17.5,12.5c-36.8,36.4-73.6,72.9-109.8,110
			c-8.8,9-18.3,14.6-30.6,17.3C458,650,433.1,656.8,405.7,663.7z M488.1,616.4c-18.5-5.5-25.7-20.9-35.1-35.1
			c-1.6,13.3-15.7,24.5-3.9,37.6C461.9,633.1,474,617.8,488.1,616.4z"/>
	</g>
	<circle fill="none" stroke="#000000" stroke-width="20" stroke-miterlimit="10" cx="523.5" cy="547.5" r="185.5"/>
</g>
</svg>
