<?xml version="1.0" encoding="utf-8"?>
<!-- Generator: Adobe Illustrator 21.0.0, SVG Export Plug-In . SVG Version: 6.00 Build 0)  -->
<svg version="1.2" baseProfile="tiny" id="Camada_1"
	 xmlns="http://www.w3.org/2000/svg" xmlns:xlink="http://www.w3.org/1999/xlink" x="0px" y="0px" viewBox="0 0 1000 1000"
	 overflow="scroll" xml:space="preserve">
<circle fill="none" stroke="#000000" stroke-width="20" stroke-miterlimit="10" cx="506.3" cy="552.2" r="150.4"/>
<g>
	<g>
		<path fill="#020203" d="M592.7,581.4c-14.7-5.6-18.3-15-17.5-28.6c1.2-19.8,0.3-39.7,0.3-60.4c-46.1,0-91.7,0-138.1,0
			c0,33.8,0,67.9,0,103.1c25.4,0,50.8,0,76.8,0c0,6.1,0,11,0,17.5c-13.4,0-27,0-40.6,0c-11.9,0-23.8,0.1-35.7,0
			c-11.7-0.2-18.4-6.4-18.5-17.9c-0.2-34.3-0.2-68.6,0-103c0-11.5,6.6-17.9,18.4-17.9c45.5-0.1,91,0,136.5-0.1
			c10.1,0,17.9,4.8,18.1,14.7C593.3,519.5,592.7,550,592.7,581.4z"/>
		<path fill="#020203" d="M446.6,497.2c16.5,10.3,32.6,19.8,47.9,30.3c8.2,5.6,14.3,6.5,22.9,0.4c15.2-10.9,31.5-20.1,47.5-30.2
			c4.2,14.8,4,15.3-7.9,22.9c-13.7,8.7-27.7,17-41.1,26.2c-6.8,4.6-11.9,5.5-19,0.4c-12.9-9.2-26.3-17.9-40.3-25.4
			C446.5,516.3,443.2,509.5,446.6,497.2z"/>
		<path fill="#020203" d="M558.3,596.2c0-6.4,0-11,0-18.1c12.2,9.2,22.9,17.2,35,26.3c-11.7,8.7-22.4,16.8-34.5,25.8
			c-0.4-6.4-0.6-11.2-0.9-17.1c-8.3,0-16.5,0-25.1,0c0-6,0-10.9,0-16.9C540.6,596.2,548.7,596.2,558.3,596.2z"/>
	</g>
</g>
</svg>
