<?xml version="1.0" encoding="utf-8"?>
<!-- Generator: Adobe Illustrator 21.0.0, SVG Export Plug-In . SVG Version: 6.00 Build 0)  -->
<svg version="1.2" baseProfile="tiny" id="Camada_1"
	 xmlns="http://www.w3.org/2000/svg" xmlns:xlink="http://www.w3.org/1999/xlink" x="0px" y="0px" viewBox="0 0 1000 1000"
	 overflow="scroll" xml:space="preserve">
<circle fill="none" stroke="#000000" stroke-width="20" stroke-miterlimit="10" cx="506.6" cy="549.3" r="150.4"/>
<g>
	<path stroke="#000000" stroke-width="3" stroke-miterlimit="10" d="M419.2,507.5c0.5-1.5,1.2-3,2.3-4.3c4.7-6.1,9.3-12.4,14.8-17.9
		c11.1-11.1,18.3-10,31.9,3.5c21.5,21.2,23.2,26.9,12,39.5c-2.9,3.2-5.9,6.2-9,9.5c8.4,17.8,21.8,30.7,37.7,40.9
		c2.7,1.7,9.7,0.1,12.7-2.4c15.1-12.8,20.2-13,34,0.6c1.9,1.8,3.8,3.6,5.5,5.6c7.2,8.1,18.8,14.6,11.8,28.5
		c-8.1,16-26.5,27-41.4,23.3c-28-6.9-53.6-21.2-73.4-42.3c-8.7-9.3-16.2-19.7-22.6-30.6C426.9,546.4,413.1,525.4,419.2,507.5z
		 M428.7,522c2.2,15.6,12.4,33.1,25,49.4c20.3,26.1,45.1,45.8,78,53.3c12.4,2.8,27.1-5.4,32-17.1c4.5-10.7-5.9-14.3-11-19.8
		c-13.3-14.3-13.3-13.6-28.2-1.1c-3.6,3.1-11.8,5.1-15.4,3.1c-19.4-10.6-35.2-25.6-45.3-45.4c-1.9-3.7-0.6-11.2,2.2-14.6
		c13.1-16.3,13.5-16.1-1-30.6c-2.8-2.8-5.2-6.1-8.4-8.1c-2.6-1.6-7.4-3.1-9.1-1.9C438.1,496,427.7,502.6,428.7,522z"/>
	<path stroke="#000000" stroke-width="3" stroke-miterlimit="10" d="M517.7,468c23,9,44,20.8,56.2,43.5c4.3,7.9,7.3,16.7,10,25.3
		c0.8,2.7-1.5,6.4-2.4,9.7c-2.1-2.3-4.8-4.4-6.1-7.1c-3.6-7.8-5.8-16.4-10.1-23.9c-10.9-19.1-27.7-31-48.8-36.4
		c-6.4-1.7-10.5-3.7-9.1-11.1C510.7,468,514.2,468,517.7,468z"/>
	<path stroke="#000000" stroke-width="3" stroke-miterlimit="10" d="M506.4,499.9c12.7-3.1,22.3,4.8,31.5,12.6
		c13.1,11,18,24.7,12.9,37.3c-6.4-10.4-10.8-21.3-18.5-28.9c-7.5-7.4-18.2-11.6-27.5-17.2C505.3,502.4,505.9,501.2,506.4,499.9z"/>
	<path fill="#FFFFFF" stroke="#000000" stroke-width="3" stroke-miterlimit="10" d="M428.7,522c-1-19.4,9.4-26,18.7-32.8
		c1.7-1.3,6.5,0.3,9.1,1.9c3.2,2,5.7,5.3,8.4,8.1c14.5,14.5,14.1,14.2,1,30.6c-2.7,3.4-4.1,10.9-2.2,14.6
		c10.1,19.8,26,34.8,45.3,45.4c3.6,2,11.8,0,15.4-3.1c14.9-12.5,14.9-13.2,28.2,1.1c5.1,5.5,15.5,9.1,11,19.8
		c-4.9,11.8-19.6,20-32,17.1c-32.9-7.4-57.7-27.2-78-53.3C441.1,555.1,430.9,537.5,428.7,522z"/>
</g>
</svg>
