<?xml version="1.0" encoding="utf-8"?>
<!-- Generator: Adobe Illustrator 21.0.0, SVG Export Plug-In . SVG Version: 6.00 Build 0)  -->
<svg version="1.2" baseProfile="tiny" id="Camada_1"
	 xmlns="http://www.w3.org/2000/svg" xmlns:xlink="http://www.w3.org/1999/xlink" x="0px" y="0px" viewBox="0 0 1000 1000"
	 overflow="scroll" xml:space="preserve">
<circle fill="none" stroke="#000000" stroke-width="20" stroke-miterlimit="10" cx="506.9" cy="543.3" r="185.5"/>
<g>
	<path d="M570.3,651.2c0-57.4,0-113.9,0-171.4c13.8,0,27.4,0,41.9,0c0,57,0,113.8,0,171.4C598.5,651.2,585.1,651.2,570.3,651.2z"/>
	<path d="M558.2,651.3c-13.9,0-27.3,0-41.6,0c0-42.5,0-85,0-128.3c13.5,0,27.2,0,41.6,0C558.2,565.7,558.2,608.2,558.2,651.3z"/>
	<path d="M503.7,651.4c-13.8,0-27.1,0-41.3,0c0-28.4,0-56.4,0-85.2c13.5,0,26.8,0,41.3,0C503.7,593.8,503.7,621.9,503.7,651.4z"/>
	<path d="M417.6,530.8c-5.3-6.5-9.6-11.7-16.1-19.6c16.3-14.6,33.9-30.5,51.9-46.7c-7.6-8.2-12.9-14.1-20-21.8
		c21-2.6,39.8-4.9,60.7-7.5c-2.5,20.5-4.7,39.3-7.3,61c-7.2-6.8-12.6-11.9-18.6-17.5C451.5,495.9,435,512.9,417.6,530.8z"/>
	<path d="M408.4,609.3c14.2,0,27.5,0,41.5,0c0,13.9,0,27.2,0,41.6c-13.3,0-26.9,0-41.5,0C408.4,637.7,408.4,624,408.4,609.3z"/>
</g>
</svg>
