<?xml version="1.0" encoding="utf-8"?>
<!-- Generator: Adobe Illustrator 21.0.0, SVG Export Plug-In . SVG Version: 6.00 Build 0)  -->
<svg version="1.2" baseProfile="tiny" id="Camada_1"
	 xmlns="http://www.w3.org/2000/svg" xmlns:xlink="http://www.w3.org/1999/xlink" x="0px" y="0px" viewBox="0 0 1000 1000"
	 overflow="scroll" xml:space="preserve">
<circle fill="none" stroke="#000000" stroke-width="20" stroke-miterlimit="10" cx="506.6" cy="549.3" r="185.5"/>
<g>
	<path d="M470.8,632c15.1-52.7,30.2-104.3,44.5-156c4.6-16.7,16.8-6.1,27.4-10.2c-10.9,38.5-21.1,74.8-31.5,111.1
		c-3.5,12.3-7.2,24.6-10.7,36.9C494.8,634.2,494.8,634.2,470.8,632z"/>
	<path d="M458,607.6c-17.2,5.2-27-1.2-35.6-13.4c-10.5-15-22.6-28.8-35.1-44.5c14.9-18.6,29.2-38.2,45.6-55.7
		c4.4-4.7,15.2-3.3,24.6-1.6c-11.8,15-22.9,30.7-35.8,44.6c-9.3,10-7.9,16.6,0.5,25.9C434.6,576.9,445.6,592.1,458,607.6z"/>
	<path d="M555.2,492c17.1-5,27,1.1,35.6,13.5c10.4,15,22.6,28.8,35,44.3c-15,18.7-29.2,38.3-45.6,55.9c-4.3,4.6-15.1,3.3-24.6,1.5
		c11.9-15,22.9-30.6,35.8-44.6c9.2-10,8-16.5-0.5-25.9C578.5,522.8,567.5,507.5,555.2,492z"/>
</g>
</svg>
